<?xml version="1.0" encoding="utf-8"?>
<svg xmlns="http://www.w3.org/2000/svg" xmlns:xlink="http://www.w3.org/1999/xlink" version="1.1" id="Sencha_Lockup" x="0px" y="0px" width="213.952px" height="110px" viewBox="0 7.217 213.952 110" style="enable-background:new 0 7.217 213.952 110;" xml:space="preserve">
<g id="Sencha_Logo_Text">
	<g>
		<g>
			<defs>
				<rect id="SVGID_1_" x="20.183" y="27.4" width="172.574" height="69.634"/>
			</defs>
			<clipPath id="SVGID_2_">
				<use xlink:href="#SVGID_1_" style="overflow:visible;"/>
			</clipPath>
			<path style="clip-path:url(#SVGID_2_);fill:#ffffff" d="M89.375,55.741c-0.264-0.485-0.62-0.913-1.063-1.191     c-0.442-0.278-0.941-0.499-1.512-0.613c-0.571-0.114-1.191-0.185-1.861-0.185c-0.442,0-0.884,0.043-1.319,0.136     c-0.442,0.093-0.842,0.25-1.198,0.485c-0.364,0.235-0.656,0.521-0.884,0.87c-0.228,0.349-0.349,0.792-0.349,1.319     c0,0.485,0.093,0.884,0.278,1.184c0.185,0.3,0.549,0.578,1.098,0.834c0.542,0.257,1.298,0.506,2.261,0.763     c0.963,0.257,2.218,0.578,3.773,0.97c0.464,0.093,1.105,0.264,1.933,0.506c0.82,0.242,1.64,0.635,2.453,1.162     c0.813,0.535,1.512,1.248,2.104,2.14c0.592,0.891,0.884,2.033,0.884,3.423c0,1.134-0.221,2.189-0.663,3.166     c-0.442,0.97-1.098,1.811-1.968,2.518c-0.87,0.706-1.947,1.255-3.231,1.655c-1.284,0.392-2.774,0.592-4.472,0.592     c-1.369,0-2.696-0.171-3.98-0.506c-1.284-0.335-2.425-0.863-3.409-1.583c-0.984-0.72-1.769-1.59-2.346-2.703     c-0.585-1.113-0.863-2.91-0.834-3.915h5.285c0,1.013,0.15,1.498,0.449,2.075c0.3,0.578,0.699,1.027,1.198,1.384     c0.499,0.357,1.084,0.613,1.754,0.792c0.67,0.171,1.369,0.257,2.09,0.257c0.485,0,1.013-0.043,1.562-0.121     c0.556-0.078,1.077-0.235,1.562-0.471c0.485-0.235,0.891-0.549,1.22-0.956c0.321-0.407,0.485-0.92,0.485-1.548     c0-0.67-0.214-1.22-0.642-1.633c-0.428-0.421-0.991-0.763-1.69-1.041c-0.692-0.278-1.483-0.521-2.368-0.727     c-0.884-0.207-1.776-0.442-2.674-0.692c-0.927-0.235-1.833-0.513-2.71-0.856c-0.884-0.335-1.669-0.77-2.368-1.305     c-0.692-0.535-1.255-1.198-1.683-1.997c-0.428-0.799-0.642-1.769-0.642-2.903c0-1.277,0.271-2.382,0.82-3.323     c0.542-0.941,1.255-1.719,2.14-2.346c0.884-0.628,1.876-1.091,2.988-1.391c1.113-0.3,2.225-0.449,3.338-0.449     c1.298,0,2.546,0.143,3.737,0.435c1.198,0.292,2.254,0.763,3.181,1.412c0.927,0.649,1.662,1.569,2.211,2.582     c0.542,1.006,0.813,1.74,0.813,3.758h-5.285C89.796,56.669,89.639,56.226,89.375,55.741 M115.049,66.76h-12.766     c0.071,2.018,0.478,2.938,1.22,3.659c0.742,0.72,1.811,1.17,3.202,1.17c0.998,0,1.854,0.014,2.575-0.485     c0.72-0.499,1.155-1.319,1.319-1.319h4.343c-0.699,2.018-1.762,3.48-3.195,4.407c-1.441,0.927-3.174,1.284-5.213,1.284     c-1.412,0-2.689-0.278-3.823-0.735c-1.134-0.449-2.097-1.12-2.888-1.954c-0.792-0.834-1.398-1.847-1.826-3.002     c-0.428-1.155-0.642-2.439-0.642-3.83c0-1.341,0.221-2.596,0.663-3.758c0.442-1.155,1.07-2.161,1.876-3.01     c0.813-0.849,1.776-1.512,2.903-2.004c1.127-0.485,2.368-0.727,3.737-0.727c1.533,0,2.86,0.292,4.001,0.884     c1.134,0.592,2.068,1.384,2.803,2.382c0.727,0.998,1.255,1.954,1.583,3.224c0.321,1.277,0.442,2.81,0.349,3.815 M109.08,61.012     c-0.592-0.649-1.491-0.906-2.696-0.906c-0.784,0-1.441,0.164-1.961,0.435c-0.521,0.264-0.941,0.613-1.255,1.006     c-0.314,0.392-0.535,0.692-0.663,1.127c-0.128,0.442-0.207,1.063-0.228,1.063h8.03C110.086,62.723,109.679,61.661,109.08,61.012      M129.177,74.833V64.756c0-1.483-0.078-2.589-0.542-3.323c-0.464-0.727-1.212-1.098-2.389-1.098     c-1.341,0-2.475,0.399-3.074,1.198c-0.606,0.799-1.055,2.111-1.055,3.944v9.343h-5.049V56.654h5.049v3.031h0.242     c0.628-1.013,1.433-1.933,2.432-2.403c0.998-0.478,2.018-0.777,3.06-0.777c1.319,0,2.403,0.15,3.252,0.506     c0.849,0.357,1.512,0.842,1.997,1.476c0.485,0.642,0.727,1.405,0.927,2.325c0.2,0.913,0.193,1.926,0.193,3.038v10.976h-5.042     V74.833z M145.274,60.406c-0.792,0-1.448,0.064-1.983,0.421c-0.535,0.357-0.97,0.763-1.305,1.334     c-0.335,0.571-0.578,1.162-0.713,1.847c-0.143,0.685-0.207,1.348-0.207,2.018c0,0.649,0.071,1.305,0.207,1.975     c0.143,0.67,0.364,1.277,0.678,1.826c0.314,0.542,0.735,0.991,1.269,1.334c0.535,0.349,1.184,0.521,1.947,0.521     c1.184,0,2.09-0.464,2.731-1.12c0.635-0.663,1.034-1.783,1.198-2.789h4.764c-0.328,3.031-1.248,4.336-2.781,5.591     c-1.533,1.255-3.487,1.94-5.877,1.94c-1.341,0-2.582-0.193-3.701-0.649c-1.127-0.449-2.082-1.07-2.867-1.876     c-0.792-0.813-1.405-1.769-1.847-2.895s-0.663-2.353-0.663-3.701c0-1.391,0.2-2.682,0.606-3.873     c0.406-1.191,1.006-2.225,1.79-3.095c0.785-0.87,1.747-1.548,2.888-2.033c1.134-0.485,2.432-0.727,3.894-0.727     c1.063,0,2.09,0.143,3.074,0.421c0.984,0.278,1.869,0.699,2.646,1.269c0.777,0.571,1.412,1.512,1.897,2.353     c0.485,0.849,0.763,1.227,0.834,3.245h-4.835C148.604,60.705,147.385,60.406,145.274,60.406 M167.532,74.833V64.756     c0-1.483,0-2.589-0.464-3.323c-0.464-0.727-1.17-1.098-2.353-1.098c-1.341,0-2.025,0.399-2.624,1.198     c-0.606,0.799-0.606,2.118-0.606,3.944v9.343h-5.049V49.601h5.049v10.091h-0.378c0.628-1.013,1.426-1.933,2.403-2.403     c0.977-0.478,1.926-0.777,2.853-0.777c1.319,0,2.403,0.15,3.252,0.506c0.849,0.357,1.512,0.842,1.997,1.476     c0.485,0.642,0.649,1.405,0.849,2.325c0.193,0.913,0.121,1.926,0.121,3.038v10.976H167.532z M187.814,74.833     c-0.093,0-0.171-0.521-0.228-0.813s-0.1-0.563-0.121-0.87c-0.792,0.813-1.719,1.391-2.781,1.712     c-1.07,0.321-2.154,0.492-3.266,0.492c-0.856,0-1.662-0.1-2.403-0.307c-0.742-0.207-1.391-0.535-1.947-0.97     c-0.556-0.442-0.991-0.998-1.305-1.669c-0.314-0.67-0.471-1.469-0.471-2.403c0-1.02,0.178-1.861,0.535-2.518     c0.357-0.663,0.82-1.191,1.391-1.583s1.22-0.692,1.947-0.884c0.735-0.2,1.469-0.357,2.211-0.471s1.469-0.207,2.189-0.278     c0.72-0.071,1.355-0.171,1.911-0.314c0.556-0.143,0.998-0.342,1.319-0.606c0.321-0.264,0.478-0.656,0.449-1.162     c0-0.535-0.086-0.956-0.264-1.269c-0.171-0.314-0.406-0.556-0.692-0.727c-0.292-0.171-0.628-0.292-1.006-0.349     c-0.385-0.057-0.792-0.086-1.234-0.086c-0.977,0-1.74,0.335-2.296,0.756c-0.556,0.421-0.877,1.205-0.97,2.218h-4.935     c0.071-1.013,0.357-2.254,0.87-3.017c0.513-0.763,1.162-1.448,1.947-1.904c0.785-0.464,1.676-0.827,2.66-1.02     c0.984-0.2,1.975-0.314,2.974-0.314c0.906,0,1.819,0.057,2.746,0.185c0.927,0.128,1.769,0.371,2.539,0.742     c0.763,0.371,1.17,0.884,1.655,1.548c0.485,0.663,0.506,1.533,0.506,2.624v9.357c0,0.813,0.271,1.548,0.364,2.289     c0.093,0.742,0.478,1.633,0.706,1.633h-4.999V74.833z M187.715,66.118c-1.013,0.185-0.699,0.328-1.013,0.435     s-0.763,0.193-1.127,0.264c-0.357,0.071-0.792,0.128-1.184,0.171c-0.392,0.043-0.82,0.107-1.212,0.171     c-0.371,0.071-0.749,0.164-1.113,0.278c-0.357,0.114-0.678,0.271-0.941,0.471c-0.264,0.2-0.485,0.449-0.649,0.749     c-0.164,0.3-0.242,0.685-0.242,1.148c0,0.442,0.078,0.813,0.242,1.113s0.385,0.542,0.663,0.713     c0.278,0.171,0.599,0.292,0.977,0.364c0.371,0.071,0.756,0.107,1.148,0.107c0.977,0,1.726-0.164,2.261-0.485     c0.535-0.328,0.927-0.713,1.184-1.162c0.257-0.449,0.642-0.913,0.699-1.376c0.057-0.464,0.314-0.834,0.314-1.113L187.715,66.118     L187.715,66.118z"/>
		</g>
	</g>
</g>
<g id="Sencha_Logo_Artwork">
	<g>
		<g>
	
	
		<linearGradient id="bottom_1_" gradientUnits="userSpaceOnUse" x1="10322.3848" y1="-4539.7368" x2="10278.2539" y2="-4583.8672" gradientTransform="matrix(0 -1 -1 0 -4518.8652 10363.0068)">
		<stop offset="0" style="stop-color:#C5D82D"/>
		<stop offset="0.1897" style="stop-color:#C2D62D"/>
		<stop offset="0.3354" style="stop-color:#B8CF2C"/>
		<stop offset="0.4665" style="stop-color:#A8C42B"/>
		<stop offset="0.5891" style="stop-color:#91B42A"/>
		<stop offset="0.7057" style="stop-color:#739F28"/>
		<stop offset="0.8177" style="stop-color:#4E8625"/>
		<stop offset="0.9242" style="stop-color:#236822"/>
		<stop offset="1" style="stop-color:#005020"/>
	</linearGradient>
	<path id="bottom" style="fill:url(#bottom_1_);" d="M48,79.8c3.3,1.6,5.6,5,5.6,8.9c0,3.8-2.1,7.1-5.3,8.47L53,95   c7.7-3.8,12.9-11.7,12.9-20.8c0-9-5.1-16.8-12.6-20.97l-15.2-7.6c-3.3-1.6-5.6-5-5.6-8.9c0-3.8,2-7.2,5.1-8.9L33,30.1   c-7.7,3.8-12.7,12.3-12.7,21.4c0,9,5.1,16.8,12.6,20.7L48,79.8z"/>


	
			<defs>
				<path id="SVGID_3_" d="M49.437,96.442c-0.342,0.242-0.699,0.464-1.077,0.663l2.988-1.526l-0.392-0.456      C50.493,95.608,49.986,96.05,49.437,96.442 M53.488,88.455L53.488,88.455L53.488,88.455z M53.488,88.44L53.488,88.44      L53.488,88.44z M53.488,88.426L53.488,88.426L53.488,88.426z M53.488,88.412L53.488,88.412L53.488,88.412z M53.488,88.398      L53.488,88.398L53.488,88.398z M53.488,88.376L53.488,88.376L53.488,88.376z M53.488,88.369L53.488,88.369L53.488,88.369z"/>
			</defs>
			<clipPath id="SVGID_4_">
				<use xlink:href="#SVGID_3_" style="overflow:visible;"/>
			</clipPath>
			
				<linearGradient id="SVGID_5_" gradientUnits="userSpaceOnUse" x1="-533.5778" y1="-643.0644" x2="-531.6921" y2="-643.0644" gradientTransform="matrix(23.259 23.259 -23.259 23.259 -2536.4351 27419.375)">
				<stop offset="0" style="stop-color:#C0D32E"/>
				<stop offset="0.2546" style="stop-color:#BDD12E"/>
				<stop offset="0.4064" style="stop-color:#B5CB2E"/>
				<stop offset="0.5312" style="stop-color:#A7C12D"/>
				<stop offset="0.6415" style="stop-color:#93B22D"/>
				<stop offset="0.742" style="stop-color:#78A02C"/>
				<stop offset="0.8356" style="stop-color:#58882B"/>
				<stop offset="0.922" style="stop-color:#336D29"/>
				<stop offset="1" style="stop-color:#0A5028"/>
			</linearGradient>
			<polygon style="clip-path:url(#SVGID_4_);fill:url(#SVGID_5_);" points="43.989,92.734 50.992,99.737 58.002,92.734      50.992,85.73    "/>
		</g>
	</g>
	<g>
		<g>
			<defs>
				<path id="SVGID_6_" d="M49.437,96.442c-0.342,0.242-0.699,0.464-1.077,0.663l2.988-1.526l-0.392-0.456      C50.493,95.608,49.986,96.05,49.437,96.442 M53.488,88.455L53.488,88.455L53.488,88.455z M53.488,88.44L53.488,88.44      L53.488,88.44z M53.488,88.426L53.488,88.426L53.488,88.426z M53.488,88.412L53.488,88.412L53.488,88.412z M53.488,88.398      L53.488,88.398L53.488,88.398z M53.488,88.376L53.488,88.376L53.488,88.376z M53.488,88.369L53.488,88.369L53.488,88.369z"/>
			</defs>
			<clipPath id="SVGID_7_">
				<use xlink:href="#SVGID_6_" style="overflow:visible;"/>
			</clipPath>
			
				<linearGradient id="SVGID_8_" gradientUnits="userSpaceOnUse" x1="58.2347" y1="237.0508" x2="657.2618" y2="226.1457" gradientTransform="matrix(0.1026 0.1023 -0.1034 0.1037 10.0132 4.9941)">
				<stop offset="0" style="stop-color:#C0D32E"/>
				<stop offset="0.3228" style="stop-color:#BED12E"/>
				<stop offset="0.4727" style="stop-color:#B6CC2E"/>
				<stop offset="0.5869" style="stop-color:#AAC32D"/>
				<stop offset="0.683" style="stop-color:#97B62D"/>
				<stop offset="0.7678" style="stop-color:#80A52C"/>
				<stop offset="0.8445" style="stop-color:#62902B"/>
				<stop offset="0.9152" style="stop-color:#3F772A"/>
				<stop offset="0.9794" style="stop-color:#185A28"/>
				<stop offset="1" style="stop-color:#0A5028"/>
			</linearGradient>
			<polygon style="clip-path:url(#SVGID_7_);fill:url(#SVGID_8_);" points="50.963,99.701 44.024,92.777 51.02,85.759 57.96,92.684         "/>
		</g>
	</g>
</g>
<g>
	<g>
		<g>
			<defs>
				<path id="SVGID_9_" d="M36.015,73.4L36.015,73.4L36.015,73.4 M32.785,71.781l-0.007-0.007      C32.777,71.781,32.785,71.781,32.785,71.781 M32.699,71.738c-0.007,0-0.007-0.007-0.014-0.007      C32.692,71.731,32.692,71.731,32.699,71.738 M32.649,71.709L32.649,71.709L32.649,71.709 M32.635,71.702      c0,0-0.007-0.007-0.014-0.007C32.628,71.702,32.635,71.702,32.635,71.702 M32.621,71.695c-0.007,0-0.007-0.007-0.014-0.007      C32.606,71.688,32.613,71.695,32.621,71.695 M32.606,71.688L32.606,71.688L32.606,71.688 M32.599,71.688L32.599,71.688      C32.606,71.688,32.606,71.688,32.599,71.688L32.599,71.688z M38.026,45.479c-0.007,0-0.007-0.007-0.014-0.007      C38.019,45.472,38.026,45.472,38.026,45.479 M38.019,45.472L38.019,45.472L38.019,45.472 M38.019,45.472L38.019,45.472      L38.019,45.472L38.019,45.472 M38.012,45.465L38.012,45.465L38.012,45.465 M38.012,45.465c-0.021-0.014-0.043-0.021-0.064-0.029      C37.969,45.443,37.991,45.457,38.012,45.465 M37.948,45.436c-0.057-0.029-0.114-0.057-0.171-0.093      C37.834,45.372,37.891,45.407,37.948,45.436 M37.777,45.343c-0.007,0-0.007-0.007-0.014-0.007      C37.77,45.343,37.77,45.343,37.777,45.343 M37.763,45.336c-0.007-0.007-0.021-0.007-0.029-0.014      C37.748,45.329,37.755,45.336,37.763,45.336 M37.734,45.322c-0.007,0-0.007-0.007-0.014-0.007      C37.727,45.322,37.734,45.322,37.734,45.322 M37.72,45.315c-0.007-0.007-0.014-0.007-0.021-0.014      C37.706,45.308,37.713,45.308,37.72,45.315 M37.698,45.301c-0.007,0-0.007-0.007-0.014-0.007      C37.691,45.293,37.691,45.301,37.698,45.301 M37.684,45.293c-0.007-0.007-0.021-0.007-0.029-0.014      C37.663,45.286,37.677,45.286,37.684,45.293 M37.656,45.279c0,0-0.007,0-0.007-0.007C37.648,45.279,37.656,45.279,37.656,45.279       M37.648,45.272c-0.093-0.05-0.178-0.1-0.264-0.157C37.47,45.172,37.556,45.229,37.648,45.272 M37.377,45.115      C37.377,45.115,37.37,45.115,37.377,45.115C37.37,45.115,37.377,45.115,37.377,45.115 M37.356,45.108L37.356,45.108      L37.356,45.108 M32.963,29.806c-7.659,3.823-12.78,12.164-12.78,21.307v0.071c0,1.341,0.164,2.66,0.385,3.944      c1.127,0.335,2.325,0.535,3.552,0.592c0.228,0.007,0.471,0.014,0.692,0.014c2.368,0,4.621-0.563,6.618-1.576      c0.307-4.029,1.098-8.08,2.674-12.024c-1.048-1.562-1.811-3.438-1.811-5.456l0,0v-0.007l0,0v-0.007v-0.007V36.65v-0.007v-0.007      v-0.007v-0.014c0-3.794,2.246-7.089,5.384-8.758L32.963,29.806z"/>
			</defs>
			<clipPath id="SVGID_10_">
				<use xlink:href="#SVGID_9_" style="overflow:visible;"/>
			</clipPath>
			
				<linearGradient id="SVGID_11_" gradientUnits="userSpaceOnUse" x1="-533.5915" y1="-643.2938" x2="-531.7059" y2="-643.2938" gradientTransform="matrix(23.259 23.259 -23.259 23.259 -2530.5378 27413.4785)">
				
				<stop offset="0.2546" style="stop-color: hsl(66, 66%, 50%);"/>
			</linearGradient>
			<polygon style="clip-path:url(#SVGID_10_);fill:url(#SVGID_11_);" points="-5.728,53.21 33.939,92.884 73.612,53.21      33.939,13.544    "/>
		</g>
	</g>
</g>
<g>
	<g>
		<g>
			<defs>
				<path id="SVGID_12_" d="M36.015,73.4L36.015,73.4l-1.619-0.806L36.015,73.4z M34.396,72.594l-0.107-0.057L34.396,72.594z       M24.826,55.727c-0.228,0-0.456-0.007-0.685-0.014c-1.227-0.057-2.446-0.257-3.573-0.585c0.078,0.435,0.134,0.764,0.233,1.192      l0.065,0.272c0.1,0.421,0.157,0.638,0.286,1.052l0.142,0.462c0.233,0.793,0.382,1.15,0.756,2.034l0.275,0.622      c0.063,0.139,0.174,0.376,0.305,0.635l0.321,0.621c0.378,0.756,0.618,1.092,1.075,1.791l0.064,0.1      c0.221,0.335,0.456,0.67,0.692,0.991l0.1,0.136c0.242,0.328,0.492,0.649,0.756,0.963l0.043,0.05      c0.257,0.307,0.528,0.613,0.799,0.906l0.071,0.078c0.271,0.292,0.556,0.571,0.842,0.849l0.143,0.135      c0.285,0.271,0.578,0.535,0.877,0.792l0.114,0.093c0.3,0.257,0.606,0.499,0.92,0.742l0.057,0.043      c0.314,0.242,0.642,0.471,0.97,0.699l0.171,0.114c0.321,0.214,0.649,0.421,0.984,0.628l1.741,0.948l1.026,0.521      c-2.325-5.755-3.452-12.103-2.967-18.436C29.418,55.135,27.193,55.727,24.826,55.727"/>
			</defs>
			<clipPath id="SVGID_13_">
				<use xlink:href="#SVGID_12_" style="overflow:visible;"/>
			</clipPath>
			
				<radialGradient id="SVGID_14_" cx="278.1379" cy="222.2859" r="1380.1733" gradientTransform="matrix(0.1415 0 0 0.1415 0 7.2173)" gradientUnits="userSpaceOnUse">
				
				
				<stop offset="0.0971" style="stop-color: hsl(76, 78%, 48%);"/>
				<stop offset="0.1104" style="stop-color: hsl(77, 87%, 45%);"/>
				<stop offset="0.1259" style="stop-color: hsl(82, 75%, 46%);"/>
				<stop offset="0.1423" style="stop-color: hsl(89, 62%, 47%);"/>
				<stop offset="0.154" style="stop-color: hsl(102, 48%, 50%);"/>
			</radialGradient>
			<rect x="20.161" y="53.538" style="clip-path:url(#SVGID_13_);fill:url(#SVGID_14_);" width="16.189" height="20.39"/>
		</g>
	</g>
</g>
<g>
	<g>
		<g>
			<defs>
				<path id="SVGID_15_" d="M46.421,74.99c-0.535,0-1.07-0.014-1.612-0.036c-3.06-0.143-6.138-0.755-8.927-1.625l12.086,6.104      c3.309,1.605,5.52,4.992,5.52,8.922v0.014v0.007v0.007l0,0c0,0.007,0,0.007,0,0.014l0,0v0.014l0,0v0.014l0,0v0.014l0,0v0.014      l0,0c0,0.007,0,0.021,0,0.029c0,2.567-0.906,4.899-2.532,6.64l0.392,0.456l0,0c10.735-5.079,14.02-12.876,14.249-21.723v-0.021      v-0.007v-0.014c0.134-1.383,0.027-3.046-0.292-4.55C59.821,72.886,53.424,74.99,46.421,74.99 M31.43,54.158      c2.667-1.348,4.892-3.495,6.326-6.133l1.177-2.097l-0.777-0.392c-0.043-0.021-0.086-0.043-0.121-0.064      c-0.221-0.114-0.435-0.228-0.649-0.357c0,0,0,0-0.007,0c0,0-0.007,0-0.007-0.007c-0.007,0-0.007-0.007-0.014-0.007      c0,0,0,0-0.007,0c-1.241-0.749-2.439-1.769-3.245-2.967C32.535,46.078,31.736,50.129,31.43,54.158"/>
			</defs>
			<clipPath id="SVGID_16_">
				<use xlink:href="#SVGID_15_" style="overflow:visible;"/>
			</clipPath>
			
				<linearGradient id="SVGID_17_" gradientUnits="userSpaceOnUse" x1="185.1481" y1="278.8918" x2="506.2025" y2="599.9462" gradientTransform="matrix(0.1415 0 0 0.1415 0 7.2173)">
				<stop offset="0.09" style="stop-color: hsl(78, 49%, 47%);"/>
				<stop offset="0.487" style="stop-color:#72A140"/>
				<stop offset="0.7629" style="stop-color:#236235"/>
				<stop offset="0.794" style="stop-color:#1C5730"/>
				<stop offset="0.8443" style="stop-color:#114829"/>
			</linearGradient>
			<rect x="31.144" y="41.735" style="clip-path:url(#SVGID_16_);fill:url(#SVGID_17_);" width="35.537" height="55.321"/>
		</g>
	</g>
</g>
<g>
	<g>
		<g>
			<defs>
				<path id="SVGID_18_" d="M37.755,48.025c-1.433,2.639-3.651,4.785-6.326,6.133c-0.485,6.34,0.542,12.623,2.867,18.378      l1.726,0.863c2.789,0.877,5.415,1.403,8.475,1.539c0.829,0.051,2.206,0.105,2.847,0.105c7.011,0,12.496-2.067,17.98-5.69      c-0.264-1.312-0.482-2.687-0.953-3.906l-0.014-0.014c-0.471-1.212-1.034-2.368-1.69-3.473l-0.043-0.071      c-0.428-0.72-0.899-1.412-1.405-2.082l-0.036-0.05c-0.242-0.321-0.492-0.628-0.756-0.934l-0.1-0.114      c-0.264-0.307-0.528-0.606-0.799-0.891l-0.021-0.021c-0.264-0.278-0.542-0.556-0.827-0.82l-0.114-0.107      c-0.278-0.264-0.563-0.513-0.856-0.763l-0.157-0.15c-0.3-0.25-0.599-0.492-0.913-0.727l-0.043-0.029      c-0.3-0.228-0.606-0.442-0.92-0.649l-0.171-0.121c-0.307-0.207-0.628-0.407-0.949-0.599c-0.064-0.036-0.128-0.078-0.193-0.114      c-0.328-0.193-0.663-0.378-1.006-0.556c-0.007,0-0.014-0.007-0.021-0.007l-14.406-7.224L37.755,48.025z"/>
			</defs>
			<clipPath id="SVGID_19_">
				<use xlink:href="#SVGID_18_" style="overflow:visible;"/>
			</clipPath>
			
				<radialGradient id="SVGID_20_" cx="-246.4093" cy="222.2934" r="126.2012" fx="-124.0636" fy="231.0925" gradientTransform="matrix(0.01 -0.1412 0.261 0.0185 -7.1476 20.3287)" gradientUnits="userSpaceOnUse">
				<stop offset="0" style="stop-color: hsl(83, 78%, 51%);"/>
				<stop offset="0.3658" style="stop-color: hsl(79, 83%, 44%);"/>
				<stop offset="0.5259" style="stop-color: hsl(81, 86%, 42%);"/>
				
				<stop offset="0.7452" style="stop-color: hsl(91, 82%, 40%);"/>
				<stop offset="0.83" style="stop-color: hsl(102, 60%, 43%);"/>
				<stop offset="1" style="stop-color:#3C9A44"/>
			</radialGradient>
			<rect x="30.403" y="45.243" style="clip-path:url(#SVGID_19_);fill:url(#SVGID_20_);" width="35.537" height="30.224"/>
		</g>
	</g>
</g>
<rect y="7.217" style="fill:none;" width="213.952" height="110"/>
</svg>